<svg width="35" height="16" xmlns="http://www.w3.org/2000/svg">

 <g>
  <title>background</title>
  <rect fill="none" id="canvas_background" height="18" width="37" y="-1" x="-1"/>
 </g>
 <g>
  <title>Layer 1</title>
  <path stroke="null" fill="#000000" id="svg_7" d="m13.19361,13.088193c-4.3581,-3.79275 -7.27366,0.52861 -7.3997,0.67641c-0.12605,0.1478 -0.76715,-1.70696 -3.32849,-1.49336c-0.25369,-1.437 -0.54449,-2.44513 -2.3307,-2.88147c5.05624,-3.36359 6.89971,-3.31429 6.87641,-3.52839c-0.11175,-1.02671 -0.45816,-2.19046 0.32887,-0.13506c-0.01797,-1.78661 0.3614,-0.21284 0.32363,0.07955c-0.03777,0.29239 5.53016,2.87766 9.69575,2.62327c4.16559,-0.25439 6.88756,-0.72425 9.53958,-2.40373c0.81568,-0.51655 0.37111,-2.28796 0.61067,-0.41761c0.56887,-1.60576 0.44649,-0.96337 0.1954,0.19135c-0.05333,0.2453 3.76959,0.76941 7.03183,4.06257c-0.80717,0 -2.00744,0.15673 -2.25134,2.44388c-2.33745,-0.00973 -3.10311,1.6333 -3.57038,1.41648c-0.46727,-0.21682 -3.43613,-4.29986 -7.85812,-0.56518l-5.67595,-0.00621z"/>
  <g id="logo-mule">
   <g id="head">
    <path id="svg_1" d="m20.233134,8.129967l1.305766,4.873015c-1.314397,0.561967 -2.760674,0.874804 -4.280563,0.874804s-2.966159,-0.312837 -4.280563,-0.874804l1.305766,-4.873015c-1.778063,-1.028874 -2.975203,-2.950108 -2.975203,-5.152119c0,-1.002267 0.248899,-1.945986 0.686588,-2.774534l4.024251,5.747245l2.478329,0l4.024244,-5.747245c0.437689,0.828548 0.686588,1.772267 0.686588,2.774534c0,2.202011 -1.19714,4.123245 -2.975203,5.152119z" fill="#00A2DF"/>
   </g>
  </g>
  <metadata transform="matrix(0.0042679201468836525,0,0,0.0042679201468836525,0,0) " id="svg_8">image/svg+xml</metadata>

 </g>
</svg>